<?xml version="1.0" encoding="UTF-8"?>
<svg xmlns="http://www.w3.org/2000/svg" xmlns:xlink="http://www.w3.org/1999/xlink" width="34px" height="20px" viewBox="0 0 33 20" version="1.1">
<g id="surface1">
<path style=" stroke:none;fill-rule:nonzero;fill:rgb(0%,27.450982%,51.764709%);fill-opacity:1;" d="M 28.574219 6.128906 C 28.472656 4.746094 27.480469 3.933594 25.703125 3.933594 C 23.949219 3.933594 23.058594 4.71875 23.03125 5.789062 C 23.007812 6.964844 24.125 7.539062 25.777344 7.90625 L 27.378906 8.296875 C 30.914062 9.109375 32.972656 10.910156 33 13.941406 C 32.972656 17.519531 30.226562 20 25.652344 20 C 21.074219 20 18.148438 17.546875 18.074219 13.210938 L 22.242188 13.210938 C 22.347656 15.039062 23.667969 15.976562 25.652344 15.976562 C 27.480469 15.976562 28.574219 15.140625 28.601562 13.941406 C 28.574219 12.84375 27.632812 12.269531 25.601562 11.796875 L 23.667969 11.328125 C 20.488281 10.570312 18.558594 8.949219 18.558594 6.101562 C 18.53125 2.601562 21.53125 0 25.703125 0 C 29.949219 0 32.695312 2.628906 32.746094 6.128906 Z M 28.574219 6.128906 "/>
<path style=" stroke:none;fill-rule:nonzero;fill:rgb(0%,27.450982%,51.764709%);fill-opacity:1;" d="M 0 0.191406 L 6.324219 0.191406 L 6.324219 19.554688 L 0 19.554688 Z M 0 0.191406 "/>
<path style=" stroke:none;fill-rule:nonzero;fill:rgb(0%,27.450982%,51.764709%);fill-opacity:1;" d="M 5.953125 6.6875 L 12.273438 6.6875 L 12.273438 13.183594 L 5.953125 13.183594 Z M 5.953125 6.6875 "/>
<path style=" stroke:none;fill-rule:nonzero;fill:rgb(92.941177%,10.980392%,14.117648%);fill-opacity:1;" d="M 12.273438 0.191406 L 18.597656 0.191406 L 18.597656 6.6875 L 12.273438 6.6875 Z M 12.273438 0.191406 "/>
<path style=" stroke:none;fill-rule:nonzero;fill:rgb(0%,27.450982%,51.764709%);fill-opacity:1;" d="M 12.273438 13.183594 L 18.597656 13.210938 L 18.597656 19.679688 L 12.273438 19.679688 Z M 12.273438 13.183594 "/>
</g>
</svg>
